<svg width="429" height="100" viewBox="0 0 429 100" fill="none" xmlns="http://www.w3.org/2000/svg">
<g filter="url(#filter0_d_316_1012)">
<g filter="url(#filter1_b_316_1012)">
<path d="M387.775 74.7377C382.039 78.1534 374.977 80.2262 367.342 80.2262H48.5922C29.4858 80.2262 13.9999 67.6142 13.9999 52.0536V38.1571C13.9999 22.5965 29.4858 9.98447 48.5922 9.98447H367.342C386.448 9.95528 401.97 22.5673 401.97 38.1279V52.0244C401.97 78.2392 401.214 74.2757 415.326 81.856C415.326 81.856 404.149 83.9169 387.775 74.7085V74.7377Z" fill="white" fill-opacity="0.8"/>
</g>
<path d="M316.232 62.2239C316.022 62.492 315.806 62.7776 315.585 63.0807C315.363 63.3839 315.142 63.7045 314.92 64.0425C314.711 64.369 314.507 64.7012 314.308 65.0393C314.11 65.3774 313.935 65.7097 313.784 66.0361H316.232V62.2239ZM318.383 59.5308V66.0361H319.554V67.8023H318.383V70.3554H316.232V67.8023H311.72V66.2284C311.942 65.7738 312.227 65.2608 312.577 64.6896C312.927 64.1067 313.312 63.5121 313.731 62.9059C314.151 62.2996 314.594 61.7051 315.06 61.1222C315.527 60.5276 315.993 59.9972 316.459 59.5308H318.383ZM325.937 68.9739C325.937 69.4869 325.78 69.8775 325.465 70.1456C325.15 70.4137 324.789 70.5478 324.381 70.5478C324.171 70.5478 323.973 70.5128 323.786 70.4429C323.6 70.3729 323.431 70.2738 323.279 70.1456C323.139 70.0057 323.023 69.8425 322.93 69.6559C322.848 69.4578 322.807 69.2304 322.807 68.9739C322.807 68.7291 322.848 68.5134 322.93 68.3269C323.023 68.1287 323.139 67.9655 323.279 67.8373C323.431 67.709 323.6 67.6099 323.786 67.54C323.973 67.47 324.171 67.4351 324.381 67.4351C324.789 67.4351 325.15 67.5691 325.465 67.8373C325.78 68.1054 325.937 68.4843 325.937 68.9739ZM325.937 63.6753C325.937 64.1883 325.78 64.5788 325.465 64.847C325.15 65.1151 324.789 65.2492 324.381 65.2492C324.171 65.2492 323.973 65.2142 323.786 65.1442C323.6 65.0743 323.431 64.9752 323.279 64.847C323.139 64.7071 323.023 64.5438 322.93 64.3573C322.848 64.1591 322.807 63.9318 322.807 63.6753C322.807 63.4305 322.848 63.2148 322.93 63.0283C323.023 62.8301 323.139 62.6669 323.279 62.5386C323.431 62.4104 323.6 62.3113 323.786 62.2414C323.973 62.1714 324.171 62.1364 324.381 62.1364C324.789 62.1364 325.15 62.2705 325.465 62.5386C325.78 62.8068 325.937 63.1857 325.937 63.6753ZM336.325 62.3813C336.325 62.7543 336.255 63.1157 336.115 63.4655C335.975 63.8036 335.788 64.1358 335.555 64.4622C335.322 64.7887 335.06 65.1034 334.768 65.4065C334.477 65.7097 334.18 66.0011 333.877 66.2809C333.725 66.4208 333.55 66.5899 333.352 66.788C333.154 66.9746 332.967 67.1728 332.792 67.3826C332.617 67.5808 332.466 67.7848 332.338 67.9947C332.221 68.2045 332.163 68.3969 332.163 68.5717H336.814V70.3554H329.75C329.715 70.2389 329.697 70.0931 329.697 69.9183C329.709 69.7434 329.715 69.621 329.715 69.551C329.715 68.9681 329.819 68.4318 330.029 67.9422C330.251 67.4526 330.525 67.0037 330.851 66.5957C331.189 66.176 331.545 65.7913 331.918 65.4415C332.303 65.0801 332.658 64.7362 332.985 64.4098C333.323 64.0833 333.597 63.7686 333.807 63.4655C334.028 63.1624 334.139 62.8534 334.139 62.5386C334.139 62.0956 334.005 61.7575 333.737 61.5244C333.469 61.2796 333.13 61.1571 332.722 61.1571C332.384 61.1571 332.029 61.2388 331.656 61.402C331.283 61.5652 330.915 61.8392 330.554 62.2239L329.487 60.72C329.954 60.2303 330.49 59.8689 331.096 59.6358C331.714 59.4026 332.326 59.286 332.932 59.286C333.375 59.286 333.801 59.3501 334.209 59.4784C334.617 59.6066 334.978 59.799 335.293 60.0555C335.608 60.3119 335.858 60.6384 336.045 61.0347C336.231 61.4195 336.325 61.8683 336.325 62.3813ZM345.61 64.9169C345.61 66.8288 345.29 68.2511 344.649 69.1838C344.007 70.1164 343.075 70.5828 341.851 70.5828C340.627 70.5828 339.694 70.1164 339.053 69.1838C338.412 68.2511 338.091 66.8288 338.091 64.9169C338.091 63.0283 338.417 61.6176 339.07 60.685C339.723 59.7523 340.65 59.286 341.851 59.286C343.075 59.286 344.007 59.7523 344.649 60.685C345.29 61.606 345.61 63.0166 345.61 64.9169ZM343.669 64.9169C343.669 63.6811 343.512 62.7427 343.197 62.1015C342.894 61.4486 342.445 61.1222 341.851 61.1222C341.268 61.1222 340.819 61.4486 340.504 62.1015C340.189 62.7427 340.032 63.6811 340.032 64.9169C340.032 66.1643 340.189 67.1145 340.504 67.7673C340.819 68.4085 341.268 68.7291 341.851 68.7291C342.445 68.7291 342.894 68.4085 343.197 67.7673C343.512 67.1145 343.669 66.1643 343.669 64.9169ZM342.83 64.742C342.83 65.0568 342.737 65.3308 342.55 65.5639C342.375 65.7854 342.148 65.8962 341.868 65.8962C341.565 65.8962 341.326 65.7854 341.151 65.5639C340.976 65.3308 340.889 65.0568 340.889 64.742C340.889 64.4273 340.976 64.1533 341.151 63.9201C341.326 63.687 341.565 63.5704 341.868 63.5704C342.148 63.5704 342.375 63.687 342.55 63.9201C342.737 64.1533 342.83 64.4273 342.83 64.742Z" fill="#4F4F4F"/>
<path d="M368.782 59.3863L367.337 57.9416L360.836 64.4427L362.281 65.8874L368.782 59.3863ZM373.116 57.9416L362.281 68.88L357.947 64.5459L356.502 65.9906L362.281 71.7694L374.664 59.3863L373.116 57.9416ZM350.62 65.9906L356.399 71.7694L357.844 70.3247L352.065 64.5459L350.62 65.9906Z" fill="#4F4F4F"/>
</g>
<defs>
<filter id="filter0_d_316_1012" x="0.653987" y="0.744873" width="428.018" height="98.7606" filterUnits="userSpaceOnUse" color-interpolation-filters="sRGB">
<feFlood flood-opacity="0" result="BackgroundImageFix"/>
<feColorMatrix in="SourceAlpha" type="matrix" values="0 0 0 0 0 0 0 0 0 0 0 0 0 0 0 0 0 0 127 0" result="hardAlpha"/>
<feOffset dy="4.10647"/>
<feGaussianBlur stdDeviation="6.67301"/>
<feComposite in2="hardAlpha" operator="out"/>
<feColorMatrix type="matrix" values="0 0 0 0 0 0 0 0 0 0 0 0 0 0 0 0 0 0 0.25 0"/>
<feBlend mode="normal" in2="BackgroundImageFix" result="effect1_dropShadow_316_1012"/>
<feBlend mode="normal" in="SourceGraphic" in2="effect1_dropShadow_316_1012" result="shape"/>
</filter>
<filter id="filter1_b_316_1012" x="0.0102062" y="-4.00537" width="429.306" height="100.048" filterUnits="userSpaceOnUse" color-interpolation-filters="sRGB">
<feFlood flood-opacity="0" result="BackgroundImageFix"/>
<feGaussianBlur in="BackgroundImageFix" stdDeviation="6.9949"/>
<feComposite in2="SourceAlpha" operator="in" result="effect1_backgroundBlur_316_1012"/>
<feBlend mode="normal" in="SourceGraphic" in2="effect1_backgroundBlur_316_1012" result="shape"/>
</filter>
</defs>
</svg>
